<svg width="54" height="54" viewBox="0 0 54 54" fill="none" xmlns="http://www.w3.org/2000/svg">
<path d="M51 42.9999H45.6666V34.9999C45.6666 34.2927 45.3857 33.6144 44.8856 33.1143C44.3855 32.6142 43.7072 32.3332 43 32.3332H29.6666V25.1066L32.68 26.6799C33.1194 26.9098 33.6143 27.0126 34.1089 26.9767C34.6036 26.9408 35.0784 26.7677 35.4801 26.4769C35.8818 26.186 36.1944 25.7889 36.3828 25.3301C36.5712 24.8713 36.6279 24.3691 36.5466 23.8799L35.48 17.5599L40.0666 13.0532C40.414 12.714 40.6622 12.2863 40.7844 11.8164C40.9066 11.3464 40.8981 10.8521 40.76 10.3866C40.6054 9.91263 40.3211 9.4915 39.9393 9.17098C39.5575 8.85046 39.0935 8.64338 38.6 8.57323L32.3333 7.58656L29.4 1.82656C29.1816 1.3757 28.8407 0.995472 28.4162 0.729422C27.9918 0.463373 27.5009 0.322266 27 0.322266C26.499 0.322266 26.0082 0.463373 25.5837 0.729422C25.1593 0.995472 24.8183 1.3757 24.6 1.82656L21.6666 7.58656L15.2933 8.51989C14.7998 8.59004 14.3358 8.79713 13.954 9.11765C13.5722 9.43817 13.2879 9.85929 13.1333 10.3332C12.9951 10.7987 12.9867 11.2931 13.1089 11.763C13.2311 12.233 13.4792 12.6606 13.8266 12.9999L18.52 17.5599L17.4533 23.8799C17.372 24.3691 17.4288 24.8713 17.6172 25.3301C17.8056 25.7889 18.1182 26.186 18.5199 26.4769C18.9216 26.7677 19.3964 26.9408 19.8911 26.9767C20.3857 27.0126 20.8805 26.9098 21.32 26.6799L24.3333 25.1066V32.3332H11C10.2927 32.3332 9.61446 32.6142 9.11436 33.1143C8.61427 33.6144 8.33331 34.2927 8.33331 34.9999V42.9999H2.99998C2.29274 42.9999 1.61446 43.2808 1.11436 43.7809C0.614264 44.281 0.333313 44.9593 0.333313 45.6666V50.9999C0.333313 51.7071 0.614264 52.3854 1.11436 52.8855C1.61446 53.3856 2.29274 53.6666 2.99998 53.6666C3.70722 53.6666 4.3855 53.3856 4.8856 52.8855C5.38569 52.3854 5.66665 51.7071 5.66665 50.9999V48.3332H16.3333V50.9999C16.3333 51.7071 16.6143 52.3854 17.1144 52.8855C17.6145 53.3856 18.2927 53.6666 19 53.6666C19.7072 53.6666 20.3855 53.3856 20.8856 52.8855C21.3857 52.3854 21.6666 51.7071 21.6666 50.9999V45.6666C21.6666 44.9593 21.3857 44.281 20.8856 43.7809C20.3855 43.2808 19.7072 42.9999 19 42.9999H13.6666V37.6666H40.3333V42.9999H35C34.2927 42.9999 33.6145 43.2808 33.1144 43.7809C32.6143 44.281 32.3333 44.9593 32.3333 45.6666V50.9999C32.3333 51.7071 32.6143 52.3854 33.1144 52.8855C33.6145 53.3856 34.2927 53.6666 35 53.6666C35.7072 53.6666 36.3855 53.3856 36.8856 52.8855C37.3857 52.3854 37.6666 51.7071 37.6666 50.9999V48.3332H48.3333V50.9999C48.3333 51.7071 48.6143 52.3854 49.1144 52.8855C49.6145 53.3856 50.2927 53.6666 51 53.6666C51.7072 53.6666 52.3855 53.3856 52.8856 52.8855C53.3857 52.3854 53.6666 51.7071 53.6666 50.9999V45.6666C53.6666 44.9593 53.3857 44.281 52.8856 43.7809C52.3855 43.2808 51.7072 42.9999 51 42.9999ZM27 18.0132C26.5623 18.0154 26.1318 18.1253 25.7466 18.3332L23.6133 19.4532L24.0133 17.0532C24.0833 16.6287 24.0495 16.1936 23.9148 15.7849C23.7802 15.3763 23.5486 15.0063 23.24 14.7066L21.5066 12.9999L23.9066 12.6532C24.336 12.5959 24.7449 12.4348 25.0981 12.1839C25.4512 11.933 25.7379 11.5998 25.9333 11.2132L27 9.02656L28.0666 11.2132C28.2621 11.5998 28.5488 11.933 28.9019 12.1839C29.255 12.4348 29.6639 12.5959 30.0933 12.6532L32.4933 12.9999L30.76 14.7066C30.4513 15.0063 30.2198 15.3763 30.0851 15.7849C29.9505 16.1936 29.9167 16.6287 29.9866 17.0532L30.3866 19.4532L28.2533 18.3332C27.8681 18.1253 27.4377 18.0154 27 18.0132Z" fill="black"/>
</svg>
