<svg width="54" height="54" viewBox="0 0 54 54" fill="none" xmlns="http://www.w3.org/2000/svg">
<path d="M51.8 21.88C51.0507 20.9804 50.1131 20.2563 49.0533 19.7586C47.9935 19.261 46.8374 19.002 45.6667 19H33.5067L35 15.1867C35.6211 13.5171 35.828 11.7217 35.6028 9.95449C35.3777 8.18733 34.7272 6.50117 33.7072 5.04065C32.6872 3.58012 31.3281 2.38883 29.7465 1.56895C28.1649 0.749077 26.4081 0.325093 24.6267 0.333371C24.1137 0.334441 23.6119 0.483438 23.1815 0.762498C22.7511 1.04156 22.4103 1.43884 22.2 1.9067L14.6 19H8.33333C6.2116 19 4.17677 19.8429 2.67647 21.3432C1.17618 22.8435 0.333328 24.8783 0.333328 27V45.6667C0.333328 47.7884 1.17618 49.8233 2.67647 51.3236C4.17677 52.8238 6.2116 53.6667 8.33333 53.6667H42.28C44.1515 53.6661 45.9635 53.0093 47.4009 51.8108C48.8382 50.6122 49.8098 48.9476 50.1467 47.1067L53.5333 28.44C53.7428 27.2864 53.6961 26.1008 53.3966 24.9672C53.097 23.8336 52.552 22.7796 51.8 21.88ZM13.6667 48.3334H8.33333C7.62608 48.3334 6.94781 48.0524 6.44771 47.5523C5.94761 47.0522 5.66666 46.3739 5.66666 45.6667V27C5.66666 26.2928 5.94761 25.6145 6.44771 25.1144C6.94781 24.6143 7.62608 24.3334 8.33333 24.3334H13.6667V48.3334ZM48.3333 27.48L44.9467 46.1467C44.8331 46.7679 44.5027 47.3287 44.0144 47.7291C43.526 48.1295 42.9114 48.3437 42.28 48.3334H19V22.2267L26.2533 5.9067C27 6.12437 27.6933 6.49445 28.2897 6.99359C28.8861 7.49273 29.3726 8.11008 29.7184 8.80669C30.0642 9.50329 30.2618 10.264 30.2988 11.0408C30.3358 11.8177 30.2114 12.5937 29.9333 13.32L28.52 17.1334C28.2188 17.9394 28.1172 18.8063 28.2237 19.6601C28.3302 20.5139 28.6416 21.3293 29.1316 22.0367C29.6215 22.744 30.2752 23.3223 31.0371 23.7223C31.7989 24.1222 32.6462 24.3319 33.5067 24.3334H45.6667C46.0584 24.3327 46.4455 24.4184 46.8004 24.5843C47.1553 24.7503 47.4693 24.9923 47.72 25.2934C47.9769 25.5902 48.1651 25.9402 48.2711 26.3181C48.3771 26.6961 48.3984 27.0929 48.3333 27.48Z" fill="black"/>
</svg>
