<svg width="48" height="60" viewBox="0 0 48 60" fill="none" xmlns="http://www.w3.org/2000/svg">
<path d="M14.5807 20.3852L14.5747 20.3901L14.569 20.3956L14.5807 20.3852ZM41.125 19.8878C40.9395 19.709 40.7337 19.5525 40.5117 19.4216C40.1975 19.2367 39.8488 19.1182 39.487 19.0735C39.1252 19.0287 38.7581 19.0586 38.4083 19.1614C38.0586 19.2642 37.7336 19.4376 37.4535 19.6709C37.1734 19.9042 36.9442 20.1926 36.7799 20.518C35.8614 22.3278 34.5945 23.9385 33.0519 25.2576C33.2878 23.9285 33.4068 22.5813 33.4074 21.2315C33.4124 17.1251 32.3291 13.0908 30.2678 9.53916C28.2066 5.98757 25.241 3.04563 21.673 1.01286C21.28 0.790052 20.8368 0.670752 20.385 0.666154C19.9332 0.661556 19.4877 0.77181 19.0902 0.986571C18.6927 1.20133 18.3562 1.51356 18.1125 1.89395C17.8687 2.27435 17.7255 2.71044 17.6965 3.16131C17.5472 5.68978 16.8862 8.16162 15.7535 10.4271C14.6208 12.6926 13.0399 14.7045 11.1067 16.3409L10.4921 16.8409C8.47054 18.2012 6.68115 19.878 5.19264 21.8071C2.87881 24.722 1.27596 28.136 0.511186 31.7782C-0.253583 35.4204 -0.159233 39.1908 0.786756 42.7902C1.73274 46.3896 3.50435 49.7191 5.96108 52.5147C8.41781 55.3103 11.4921 57.495 14.9401 58.8956C15.345 59.0611 15.7843 59.1243 16.2194 59.0798C16.6545 59.0353 17.0719 58.8844 17.4349 58.6405C17.7979 58.3965 18.0952 58.067 18.3007 57.681C18.5063 57.2949 18.6136 56.8642 18.6134 56.4269C18.6114 56.144 18.5667 55.863 18.4806 55.5935C17.8839 53.3509 17.7121 51.0165 17.974 48.7107C20.4973 53.47 24.5477 57.2424 29.474 59.4217C30.0753 59.6907 30.7551 59.7269 31.3816 59.5232C35.2738 58.267 38.7801 56.0364 41.5673 53.0434C44.3546 50.0503 46.3303 46.3943 47.3066 42.4227C48.2829 38.4511 48.2275 34.2958 47.1456 30.3516C46.0636 26.4074 43.9912 22.8054 41.125 19.8878ZM30.7123 54.104C28.3878 52.9259 26.3372 51.2718 24.694 49.2492C23.0508 47.2266 21.8516 44.8808 21.1745 42.3644C20.9677 41.5171 20.8077 40.659 20.6953 39.7941C20.6192 39.2433 20.3728 38.73 19.9906 38.3261C19.6084 37.9223 19.1096 37.6479 18.5638 37.5414C18.3957 37.5083 18.2247 37.4917 18.0534 37.492C17.5847 37.4918 17.1242 37.6152 16.7185 37.8498C16.3127 38.0843 15.9759 38.4217 15.7422 38.828C13.5295 42.6443 12.4168 46.9987 12.5273 51.4087C10.5813 49.8957 8.9549 48.0114 7.74244 45.8652C6.52998 43.719 5.75554 41.3535 5.46402 38.9057C5.1725 36.458 5.36969 33.9768 6.04416 31.6058C6.71863 29.2349 7.85697 27.0214 9.3932 25.0936C10.5596 23.5785 11.9668 22.265 13.5585 21.2056C13.6275 21.1611 13.6936 21.1124 13.7564 21.0598C13.7564 21.0598 14.5476 20.4052 14.5747 20.3902C18.3739 17.1767 21.076 12.8582 22.3046 8.03633C25.2102 10.7223 27.1475 14.2924 27.816 18.1923C28.4844 22.0923 27.8465 26.1038 26.0012 29.604C25.7575 30.0711 25.6575 30.5999 25.7138 31.1237C25.7702 31.6476 25.9805 32.143 26.3181 32.5475C26.6557 32.9519 27.1056 33.2474 27.6109 33.3965C28.1162 33.5456 28.6544 33.5417 29.1575 33.3854C33.2423 32.1049 36.8367 29.6038 39.457 26.2187C41.0318 28.5448 42.0614 31.1963 42.469 33.9757C42.8766 36.755 42.6518 39.5905 41.8112 42.2708C40.9706 44.9512 39.5361 47.4073 37.6143 49.4561C35.6926 51.505 33.3333 53.0937 30.7122 54.104L30.7123 54.104Z" fill="black"/>
</svg>
