<svg width="44" height="54" viewBox="0 0 44 54" fill="none" xmlns="http://www.w3.org/2000/svg">
<path d="M42.3467 4.7335C42.0369 4.4829 41.6749 4.3049 41.2872 4.21261C40.8996 4.12031 40.4962 4.11606 40.1067 4.20017C37.2572 4.79735 34.3156 4.80496 31.4631 4.22253C28.6105 3.64009 25.9074 2.47994 23.52 0.813505C23.0736 0.503832 22.5433 0.337891 22 0.337891C21.4568 0.337891 20.9264 0.503832 20.48 0.813505C18.0927 2.47994 15.3896 3.64009 12.537 4.22253C9.68446 4.80496 6.74287 4.79735 3.89337 4.20017C3.50387 4.11606 3.10048 4.12031 2.71284 4.21261C2.3252 4.3049 1.96317 4.4829 1.65337 4.7335C1.34398 4.98449 1.09476 5.3016 0.924015 5.66155C0.753272 6.02149 0.665348 6.41512 0.666702 6.8135V26.6802C0.664332 30.5035 1.57543 34.2721 3.32413 37.6721C5.07283 41.072 7.60851 44.0051 10.72 46.2268L20.4534 53.1602C20.905 53.4817 21.4456 53.6545 22 53.6545C22.5544 53.6545 23.0951 53.4817 23.5467 53.1602L33.28 46.2268C36.3916 44.0051 38.9272 41.072 40.6759 37.6721C42.4246 34.2721 43.3357 30.5035 43.3334 26.6802V6.8135C43.3347 6.41512 43.2468 6.02149 43.0761 5.66155C42.9053 5.3016 42.6561 4.98449 42.3467 4.7335ZM38 26.6802C38.0021 29.6529 37.2941 32.583 35.9351 35.2269C34.5761 37.8707 32.6053 40.1518 30.1867 41.8802L22 47.7202L13.8134 41.8802C11.3948 40.1518 9.424 37.8707 8.06497 35.2269C6.70594 32.583 5.99799 29.6529 6.00004 26.6802V9.88017C11.5905 10.3587 17.1895 9.06157 22 6.1735C26.8106 9.06157 32.4096 10.3587 38 9.88017V26.6802ZM26.1067 20.5735L18.9334 27.7735L16.56 25.3735C16.0579 24.8714 15.3768 24.5893 14.6667 24.5893C13.9566 24.5893 13.2755 24.8714 12.7734 25.3735C12.2712 25.8756 11.9891 26.5567 11.9891 27.2668C11.9891 27.977 12.2712 28.658 12.7734 29.1602L17.04 33.4268C17.2879 33.6768 17.5829 33.8752 17.9078 34.0105C18.2328 34.1459 18.5813 34.2156 18.9334 34.2156C19.2854 34.2156 19.6339 34.1459 19.9589 34.0105C20.2839 33.8752 20.5788 33.6768 20.8267 33.4268L30 24.3335C30.5022 23.8314 30.7843 23.1503 30.7843 22.4402C30.7843 21.73 30.5022 21.049 30 20.5468C29.4979 20.0447 28.8168 19.7626 28.1067 19.7626C27.3966 19.7626 26.7155 20.0447 26.2134 20.5468L26.1067 20.5735Z" fill="black"/>
</svg>
