<svg width="46" height="54" viewBox="0 0 46 54" fill="none" xmlns="http://www.w3.org/2000/svg">
<path d="M44.6267 41.6399L31.0001 18.2799V5.66659H33.6667C34.374 5.66659 35.0523 5.38563 35.5523 4.88554C36.0524 4.38544 36.3334 3.70716 36.3334 2.99992C36.3334 2.29267 36.0524 1.6144 35.5523 1.1143C35.0523 0.614203 34.374 0.333252 33.6667 0.333252H12.3334C11.6262 0.333252 10.9479 0.614203 10.4478 1.1143C9.94768 1.6144 9.66673 2.29267 9.66673 2.99992C9.66673 3.70716 9.94768 4.38544 10.4478 4.88554C10.9479 5.38563 11.6262 5.66659 12.3334 5.66659H15.0001V18.2799L1.3734 41.6399C0.665511 42.8552 0.290502 44.2356 0.286171 45.6419C0.281839 47.0483 0.648338 48.431 1.34872 49.6506C2.04911 50.8702 3.05863 51.8836 4.27552 52.5887C5.49241 53.2937 6.87367 53.6655 8.28006 53.6666H37.6134C39.0198 53.6655 40.401 53.2937 41.6179 52.5887C42.8348 51.8836 43.8443 50.8702 44.5447 49.6506C45.2451 48.431 45.6116 47.0483 45.6073 45.6419C45.603 44.2356 45.2279 42.8552 44.5201 41.6399H44.6267ZM19.9601 20.3066C20.1953 19.9106 20.3239 19.4604 20.3334 18.9999V5.66659H25.6667V18.9999C25.6716 19.4695 25.8004 19.9294 26.0401 20.3333L28.3334 24.3333H17.6667L19.9601 20.3066ZM40.0134 46.9733C39.7807 47.3763 39.4466 47.7114 39.0443 47.9453C38.642 48.1792 38.1854 48.3038 37.7201 48.3066H8.38673C7.92136 48.3038 7.46483 48.1792 7.0625 47.9453C6.66018 47.7114 6.32608 47.3763 6.0934 46.9733C5.85935 46.5679 5.73613 46.108 5.73613 45.6399C5.73613 45.1718 5.85935 44.712 6.0934 44.3066L14.5467 29.6666H31.4801L40.0134 44.3333C40.2474 44.7386 40.3707 45.1985 40.3707 45.6666C40.3707 46.1347 40.2474 46.5945 40.0134 46.9999V46.9733ZM17.6667 34.9999C17.1393 34.9999 16.6237 35.1563 16.1852 35.4493C15.7467 35.7424 15.4049 36.1588 15.2031 36.6461C15.0012 37.1334 14.9484 37.6695 15.0513 38.1868C15.1542 38.7041 15.4082 39.1793 15.7811 39.5522C16.1541 39.9251 16.6292 40.1791 17.1465 40.282C17.6638 40.3849 18.1999 40.3321 18.6872 40.1303C19.1745 39.9284 19.591 39.5866 19.884 39.1481C20.177 38.7096 20.3334 38.194 20.3334 37.6666C20.3334 36.9593 20.0524 36.2811 19.5523 35.781C19.0522 35.2809 18.374 34.9999 17.6667 34.9999ZM28.3334 37.6666C27.806 37.6666 27.2904 37.823 26.8519 38.116C26.4133 38.409 26.0716 38.8255 25.8697 39.3128C25.6679 39.8 25.6151 40.3362 25.718 40.8535C25.8209 41.3708 26.0748 41.8459 26.4478 42.2189C26.8207 42.5918 27.2959 42.8458 27.8132 42.9487C28.3304 43.0516 28.8666 42.9988 29.3539 42.7969C29.8412 42.5951 30.2576 42.2533 30.5506 41.8148C30.8437 41.3762 31.0001 40.8607 31.0001 40.3333C31.0001 39.626 30.7191 38.9477 30.219 38.4476C29.7189 37.9475 29.0406 37.6666 28.3334 37.6666Z" fill="black"/>
</svg>
