<svg width="33" height="54" viewBox="0 0 33 54" fill="none" xmlns="http://www.w3.org/2000/svg">
<path d="M14.3332 2.99992C14.3332 3.70716 14.6142 4.38544 15.1143 4.88554C15.6144 5.38564 16.2927 5.66658 16.9999 5.66658H23.9066L7.10656 22.4399C6.85662 22.6878 6.65823 22.9828 6.52285 23.3077C6.38747 23.6327 6.31777 23.9812 6.31777 24.3332C6.31777 24.6853 6.38747 25.0338 6.52285 25.3588C6.65823 25.6837 6.85662 25.9787 7.10656 26.2266L15.9066 34.9999L1.77323 49.1066C1.27108 49.6087 0.988983 50.2898 0.988983 50.9999C0.988983 51.7101 1.27108 52.3911 1.77323 52.8932C2.27537 53.3954 2.95642 53.6775 3.66656 53.6775C4.3767 53.6775 5.05775 53.3954 5.55989 52.8932L21.5599 36.8932C21.8098 36.6453 22.0082 36.3504 22.1436 36.0255C22.279 35.7005 22.3487 35.3519 22.3487 34.9999C22.3487 34.6479 22.279 34.2993 22.1436 33.9744C22.0082 33.6494 21.8098 33.3545 21.5599 33.1066L12.7599 24.3332L27.6666 9.42658V16.3332C27.6666 17.0405 27.9475 17.7188 28.4476 18.2189C28.9477 18.719 29.626 18.9999 30.3332 18.9999C31.0405 18.9999 31.7188 18.719 32.2188 18.2189C32.7189 17.7188 32.9999 17.0405 32.9999 16.3332V2.99992C32.9957 2.65144 32.9232 2.30718 32.7866 1.98658C32.516 1.33499 31.9982 0.817184 31.3466 0.546581C31.026 0.409939 30.6817 0.337463 30.3332 0.333252H16.9999C16.2927 0.333252 15.6144 0.614201 15.1143 1.1143C14.6142 1.6144 14.3332 2.29267 14.3332 2.99992Z" fill="black"/>
</svg>
